<svg width="44" height="39" viewBox="0 0 44 39" fill="none" xmlns="http://www.w3.org/2000/svg">
<g clip-path="url(#clip0_4254_3345)">
<path d="M23.1844 0.43418C22.4969 -0.144727 21.4962 -0.144727 20.8087 0.43418L0.642002 17.4967C-0.129526 18.1518 -0.221193 19.302 0.428113 20.0713C1.07742 20.8406 2.23853 20.932 3.01006 20.2846L4.88922 18.7002V32.9062C4.88922 36.273 7.62395 39 11.0003 39H33.0003C36.3767 39 39.1115 36.273 39.1115 32.9062V18.7002L40.983 20.2846C41.7545 20.9396 42.9156 20.8406 43.5649 20.0713C44.2142 19.302 44.1226 18.1441 43.351 17.4967L23.1844 0.43418ZM8.55589 32.9062V15.6L22.0003 4.22754L35.4448 15.6V32.9062C35.4448 34.2545 34.3524 35.3438 33.0003 35.3438H29.3337V23.7656C29.3337 22.0822 27.9663 20.7188 26.2781 20.7188H17.7226C16.0344 20.7188 14.667 22.0822 14.667 23.7656V35.3438H11.0003C9.64825 35.3438 8.55589 34.2545 8.55589 32.9062ZM18.3337 35.3438V24.375H25.667V35.3438H18.3337Z" fill="#EEEEEE"/>
</g>
<defs>
<clipPath id="clip0_4254_3345">
<rect width="44" height="39" fill="white"/>
</clipPath>
</defs>
</svg>
